<svg xmlns="http://www.w3.org/2000/svg" viewBox="0 0 512 512"><rect width="512" height="512" fill="none"/><defs><linearGradient id="SVGvsEHveYU" x1="6" x2="18" y1="169.6" y2="190.4" gradientUnits="userSpaceOnUse"><stop offset="0" stop-color="#fde68a"/><stop offset=".5" stop-color="#fde68a"/><stop offset="1" stop-color="#fde171"/></linearGradient><linearGradient id="SVGH49eWcfQ" x1="66" x2="78" y1="169.6" y2="190.4" href="#SVGvsEHveYU"/><linearGradient id="SVGf0nFxd2r" x1="38" x2="50" y1="137.6" y2="158.4" href="#SVGvsEHveYU"/><linearGradient id="SVG8y3NBbLX" x1="98" x2="110" y1="137.6" y2="158.4" href="#SVGvsEHveYU"/><linearGradient id="SVG5KVNAcxx" x1="70" x2="82" y1="101.6" y2="122.4" href="#SVGvsEHveYU"/><linearGradient id="SVGqQ5cadYW" x1="130" x2="142" y1="101.6" y2="122.4" href="#SVGvsEHveYU"/><linearGradient id="SVG8S17xeQp" x1="102" x2="114" y1="69.6" y2="90.4" href="#SVGvsEHveYU"/><linearGradient id="SVG4Fga5blR" x1="162" x2="174" y1="69.6" y2="90.4" href="#SVGvsEHveYU"/><linearGradient id="SVGbhydkcwZ" x1="134" x2="146" y1="33.6" y2="54.4" href="#SVGvsEHveYU"/><linearGradient id="SVG2E67HClB" x1="194" x2="206" y1="33.6" y2="54.4" href="#SVGvsEHveYU"/><linearGradient id="SVGwSE9idmY" x1="166" x2="178" y1="1.6" y2="22.4" href="#SVGvsEHveYU"/><linearGradient id="SVGf6NNPb7I" x1="226" x2="238" y1="1.6" y2="22.4" href="#SVGvsEHveYU"/><linearGradient id="SVGpS2jccQh" x1="54.3" x2="187.2" y1="29" y2="259.1" gradientUnits="userSpaceOnUse"><stop offset="0" stop-color="#86c3db"/><stop offset=".5" stop-color="#86c3db"/><stop offset="1" stop-color="#5eafcf"/></linearGradient><symbol id="SVG7sC0PeQg" viewBox="0 0 270 270"><path fill="url(#SVGpS2jccQh)" stroke="#72b9d5" stroke-linecap="round" stroke-linejoin="round" stroke-width="6" d="M252.3 168.6A133.4 133.4 0 0 1 118 36.2A130.5 130.5 0 0 1 122.5 3A133 133 0 0 0 3 134.6C3 207.7 63 267 137.2 267c62.5 0 114.8-42.2 129.8-99.2a135.6 135.6 0 0 1-14.8.8Z"><animateTransform additive="sum" attributeName="transform" dur="6s" repeatCount="indefinite" type="rotate" values="-15 135 135; 9 135 135; -15 135 135"/></path></symbol><symbol id="SVGs9SRNeJm" viewBox="0 0 244 192"><circle cx="12" cy="180" r="12" fill="url(#SVGvsEHveYU)"><animate attributeName="opacity" begin="-1s" dur=".67s" repeatCount="indefinite" values="0.5; 1; .5"/></circle><circle cx="72" cy="180" r="12" fill="url(#SVGH49eWcfQ)"><animate attributeName="opacity" begin="-1.08s" dur=".67s" repeatCount="indefinite" values="0.5; 1; .5"/></circle><circle cx="44" cy="148" r="12" fill="url(#SVGf0nFxd2r)"><animate attributeName="opacity" begin="-1.16s" dur=".67s" repeatCount="indefinite" values="0.5; 1; .5"/></circle><circle cx="104" cy="148" r="12" fill="url(#SVG8y3NBbLX)"><animate attributeName="opacity" begin="-1.24s" dur=".67s" repeatCount="indefinite" values="0.5; 1; .5"/></circle><circle cx="76" cy="112" r="12" fill="url(#SVG5KVNAcxx)"><animate attributeName="opacity" begin="-1.32s" dur=".67s" repeatCount="indefinite" values="0.5; 1; .5"/></circle><circle cx="136" cy="112" r="12" fill="url(#SVGqQ5cadYW)"><animate attributeName="opacity" begin="-1.40s" dur=".67s" repeatCount="indefinite" values="0.5; 1; .5"/></circle><circle cx="108" cy="80" r="12" fill="url(#SVG8S17xeQp)"><animate attributeName="opacity" begin="-1.48s" dur=".67s" repeatCount="indefinite" values="0.5; 1; .5"/></circle><circle cx="168" cy="80" r="12" fill="url(#SVG4Fga5blR)"><animate attributeName="opacity" begin="-1.56s" dur=".67s" repeatCount="indefinite" values="0.5; 1; .5"/></circle><circle cx="140" cy="44" r="12" fill="url(#SVGbhydkcwZ)"><animate attributeName="opacity" begin="-1.64s" dur=".67s" repeatCount="indefinite" values="0.5; 1; .5"/></circle><circle cx="200" cy="44" r="12" fill="url(#SVG2E67HClB)"><animate attributeName="opacity" begin="-1.72s" dur=".67s" repeatCount="indefinite" values="0.5; 1; .5"/></circle><circle cx="172" cy="12" r="12" fill="url(#SVGwSE9idmY)"><animate attributeName="opacity" begin="-1.80s" dur=".67s" repeatCount="indefinite" values="0.5; 1; .5"/></circle><circle cx="232" cy="12" r="12" fill="url(#SVGf6NNPb7I)"><animate attributeName="opacity" begin="-1.88s" dur=".67s" repeatCount="indefinite" values="0.5; 1; .5"/></circle></symbol><clipPath id="SVGT7dzJbuf"><path fill="none" d="M0 0h512L0 512V0z"/></clipPath></defs><g clip-path="url(#SVGT7dzJbuf)"><use width="270" height="270" href="#SVG7sC0PeQg" transform="translate(121 121)"/></g><use width="244" height="192" href="#SVGs9SRNeJm" transform="translate(192 182)"/></svg>