<svg xmlns="http://www.w3.org/2000/svg" viewBox="0 0 512 512"><rect width="512" height="512" fill="none"/><defs><linearGradient id="SVGvsEHveYU" x1="6" x2="18" y1="169.6" y2="190.4" gradientUnits="userSpaceOnUse"><stop offset="0" stop-color="#fde68a"/><stop offset=".5" stop-color="#fde68a"/><stop offset="1" stop-color="#fde171"/></linearGradient><linearGradient id="SVGH49eWcfQ" x1="66" x2="78" y1="169.6" y2="190.4" href="#SVGvsEHveYU"/><linearGradient id="SVGf0nFxd2r" x1="38" x2="50" y1="137.6" y2="158.4" href="#SVGvsEHveYU"/><linearGradient id="SVG8y3NBbLX" x1="98" x2="110" y1="137.6" y2="158.4" href="#SVGvsEHveYU"/><linearGradient id="SVG5KVNAcxx" x1="70" x2="82" y1="101.6" y2="122.4" href="#SVGvsEHveYU"/><linearGradient id="SVGqQ5cadYW" x1="130" x2="142" y1="101.6" y2="122.4" href="#SVGvsEHveYU"/><linearGradient id="SVG8S17xeQp" x1="102" x2="114" y1="69.6" y2="90.4" href="#SVGvsEHveYU"/><linearGradient id="SVG4Fga5blR" x1="162" x2="174" y1="69.6" y2="90.4" href="#SVGvsEHveYU"/><linearGradient id="SVGbhydkcwZ" x1="134" x2="146" y1="33.6" y2="54.4" href="#SVGvsEHveYU"/><linearGradient id="SVG2E67HClB" x1="194" x2="206" y1="33.6" y2="54.4" href="#SVGvsEHveYU"/><linearGradient id="SVGwSE9idmY" x1="166" x2="178" y1="1.6" y2="22.4" href="#SVGvsEHveYU"/><linearGradient id="SVGf6NNPb7I" x1="226" x2="238" y1="1.6" y2="22.4" href="#SVGvsEHveYU"/><linearGradient id="SVGeq4GoeLw" x1="150" x2="234" y1="119.2" y2="264.8" gradientUnits="userSpaceOnUse"><stop offset="0" stop-color="#fbbf24"/><stop offset=".5" stop-color="#fbbf24"/><stop offset="1" stop-color="#f59e0b"/></linearGradient><symbol id="SVG0a04Kbxn" viewBox="0 0 384 384"><circle cx="192" cy="192" r="84" fill="url(#SVGeq4GoeLw)" stroke="#f8af18" stroke-miterlimit="10" stroke-width="6"/><path fill="none" stroke="#fbbf24" stroke-linecap="round" stroke-miterlimit="10" stroke-width="24" d="M192 61.7V12m0 360v-49.7m92.2-222.5l35-35M64.8 319.2l35.1-35.1m0-184.4l-35-35m254.5 254.5l-35.1-35.1M61.7 192H12m360 0h-49.7"><animateTransform additive="sum" attributeName="transform" dur="6s" repeatCount="indefinite" type="rotate" values="0 192 192; 45 192 192"/></path></symbol><symbol id="SVGs9SRNeJm" viewBox="0 0 244 192"><circle cx="12" cy="180" r="12" fill="url(#SVGvsEHveYU)"><animate attributeName="opacity" begin="-1s" dur=".67s" repeatCount="indefinite" values="0.5; 1; .5"/></circle><circle cx="72" cy="180" r="12" fill="url(#SVGH49eWcfQ)"><animate attributeName="opacity" begin="-1.08s" dur=".67s" repeatCount="indefinite" values="0.5; 1; .5"/></circle><circle cx="44" cy="148" r="12" fill="url(#SVGf0nFxd2r)"><animate attributeName="opacity" begin="-1.16s" dur=".67s" repeatCount="indefinite" values="0.5; 1; .5"/></circle><circle cx="104" cy="148" r="12" fill="url(#SVG8y3NBbLX)"><animate attributeName="opacity" begin="-1.24s" dur=".67s" repeatCount="indefinite" values="0.5; 1; .5"/></circle><circle cx="76" cy="112" r="12" fill="url(#SVG5KVNAcxx)"><animate attributeName="opacity" begin="-1.32s" dur=".67s" repeatCount="indefinite" values="0.5; 1; .5"/></circle><circle cx="136" cy="112" r="12" fill="url(#SVGqQ5cadYW)"><animate attributeName="opacity" begin="-1.40s" dur=".67s" repeatCount="indefinite" values="0.5; 1; .5"/></circle><circle cx="108" cy="80" r="12" fill="url(#SVG8S17xeQp)"><animate attributeName="opacity" begin="-1.48s" dur=".67s" repeatCount="indefinite" values="0.5; 1; .5"/></circle><circle cx="168" cy="80" r="12" fill="url(#SVG4Fga5blR)"><animate attributeName="opacity" begin="-1.56s" dur=".67s" repeatCount="indefinite" values="0.5; 1; .5"/></circle><circle cx="140" cy="44" r="12" fill="url(#SVGbhydkcwZ)"><animate attributeName="opacity" begin="-1.64s" dur=".67s" repeatCount="indefinite" values="0.5; 1; .5"/></circle><circle cx="200" cy="44" r="12" fill="url(#SVG2E67HClB)"><animate attributeName="opacity" begin="-1.72s" dur=".67s" repeatCount="indefinite" values="0.5; 1; .5"/></circle><circle cx="172" cy="12" r="12" fill="url(#SVGwSE9idmY)"><animate attributeName="opacity" begin="-1.80s" dur=".67s" repeatCount="indefinite" values="0.5; 1; .5"/></circle><circle cx="232" cy="12" r="12" fill="url(#SVGf6NNPb7I)"><animate attributeName="opacity" begin="-1.88s" dur=".67s" repeatCount="indefinite" values="0.5; 1; .5"/></circle></symbol><clipPath id="SVGT7dzJbuf"><path fill="none" d="M0 0h512L0 512V0z"/></clipPath></defs><g clip-path="url(#SVGT7dzJbuf)"><use width="384" height="384" href="#SVG0a04Kbxn" transform="translate(64 64)"/></g><use width="244" height="192" href="#SVGs9SRNeJm" transform="translate(192 182)"/></svg>